<?xml version="1.0" encoding="iso-8859-1"?>
<!-- Generator: Adobe Illustrator 17.1.0, SVG Export Plug-In . SVG Version: 6.00 Build 0)  -->
<svg fill="#ffffff" version="1.1" id="Capa_1" xmlns="http://www.w3.org/2000/svg" xmlns:xlink="http://www.w3.org/1999/xlink" x="0px" y="0px"
	 viewBox="0 0 220 220" style="enable-background:new 0 0 220 220;" xml:space="preserve">
<path d="M184.667,160.301h-7.728V24.366c0-2.761-2.239-5-5-5h-24.5c-2.761,0-5,2.239-5,5v135.935h-8.136V43.96c0-2.761-2.239-5-5-5
	h-24.5c-2.761,0-5,2.239-5,5v116.341h-8.136V74.366c0-2.761-2.239-5-5-5H62.166c-2.761,0-5,2.239-5,5v85.935H49.03v-57.935
	c0-2.761-2.239-5-5-5H19.529c-2.761,0-5,2.239-5,5v57.935H5c-2.761,0-5,2.239-5,5s2.239,5,5,5h14.529H44.03h18.135h24.501h18.136
	h24.5h18.136h24.5h12.728c2.761,0,5-2.239,5-5S187.428,160.301,184.667,160.301z"/>
<g>
</g>
<g>
</g>
<g>
</g>
<g>
</g>
<g>
</g>
<g>
</g>
<g>
</g>
<g>
</g>
<g>
</g>
<g>
</g>
<g>
</g>
<g>
</g>
<g>
</g>
<g>
</g>
<g>
</g>
</svg>
